<svg xmlns="http://www.w3.org/2000/svg" xmlns:xlink="http://www.w3.org/1999/xlink" width="36" height="36"><defs><path id="a" d="M0 0h36v36H0z"/></defs><g fill="none" fill-rule="evenodd"><mask id="b" fill="#fff"><use xlink:href="#a"/></mask><use xlink:href="#a" fill="#B4B4B4" fill-opacity="0"/><g fill="#B4B4B4" fill-rule="nonzero" stroke="#B4B4B4" mask="url(#b)"><path d="M20.21 3.6a1.086 1.086 0 0 1 .104 2.168l-.104.005h-8.97a5.468 5.468 0 0 0-5.464 5.29l-.003.178v14.418a5.468 5.468 0 0 0 5.29 5.465l.178.003h14.418a5.468 5.468 0 0 0 5.465-5.29l.003-.178v-8.968a1.087 1.087 0 0 1 2.168-.105l.005.104v8.97a7.64 7.64 0 0 1-7.434 7.637l-.207.003H11.241a7.64 7.64 0 0 1-7.638-7.434L3.6 25.66V11.241a7.64 7.64 0 0 1 7.434-7.638l.207-.003h8.968Z"/><path d="M30.334 6.697a4.107 4.107 0 0 0-2.913-1.296 4.1 4.1 0 0 0-2.956 1.191l-7.715 7.623a1.105 1.105 0 0 0-.324.732l-.225 4.606c-.014.302.094.596.3.813.204.217.488.338.783.334l4.507-.068c.271-.004.531-.114.726-.307l7.715-7.623A4.294 4.294 0 0 0 31.5 9.72a4.3 4.3 0 0 0-1.164-3.025v.001ZM28.88 8.308a2.095 2.095 0 0 1-.133 2.821l-7.411 7.322-2.944.045.146-3.009 7.411-7.322c.384-.38.9-.588 1.434-.578.535.01 1.043.236 1.414.629l.083.092Z"/></g></g></svg>