<svg xmlns="http://www.w3.org/2000/svg" width="33" height="32"><g fill="#6054FF" fill-rule="nonzero"><path d="M9.965 26.24H6.23c-1.307 0-1.867-.841-1.867-1.866V5.724c0-1.654.32-1.865 1.867-1.865h14.934c1.445 0 1.894.484 1.894 1.866v2.504c0 1.303 1.868 1.47 1.868 0v-2.5C24.926 2.98 24.036 2 21.16 2H6.225C4.403 2 2.5 2.224 2.5 5.654V24.99c-.005.368.048.735.155 1.087a2.938 2.938 0 0 0 2.877 2.037c2.285.009 3.212 0 4.436 0 1.225 0 1.139-1.871-.005-1.871l.002-.002Z"/><path d="M8.108 7.582c-1.34 0-1.4 1.89 0 1.89h11.201c1.283 0 1.487-1.889 0-1.89H8.108Zm3.007 5.592H8.108c-1.34 0-1.4 1.89 0 1.89h3.007c1.283 0 1.487-1.888 0-1.89Zm10.05-1.825c-5.155 0-9.333 4.176-9.333 9.326.001 5.15 4.18 9.325 9.335 9.325 5.154 0 9.333-4.176 9.333-9.326.002-5.22-4.293-9.325-9.336-9.325Zm0 16.787a7.468 7.468 0 0 1-6.9-4.606 7.457 7.457 0 0 1 1.619-8.132 7.473 7.473 0 0 1 8.138-1.617 7.462 7.462 0 0 1 4.61 6.893 7.49 7.49 0 0 1-7.468 7.469v-.007Z"/><path d="m24.432 17.413-4.575 4.573-1.96-1.96c-.187-.373-.934-.373-1.308 0a.9.9 0 0 0 0 1.307l2.616 2.612a.902.902 0 0 0 1.308 0l5.227-5.225a.924.924 0 0 0-1.306-1.306h-.001v-.001Z"/></g></svg>