<svg xmlns="http://www.w3.org/2000/svg" width="33" height="32"><path fill="#999" d="M7.465 24.24H3.73c-1.307 0-1.867-.841-1.867-1.866V3.724c0-1.654.32-1.865 1.867-1.865h14.934c1.445 0 1.894.484 1.894 1.866v2.504c0 1.303 1.868 1.47 1.868 0v-2.5C22.426.98 21.536 0 18.66 0H3.725C1.903 0 0 .224 0 3.654V22.99c-.005.368.048.735.155 1.087a2.938 2.938 0 0 0 2.877 2.037c2.285.009 3.212 0 4.436 0 1.225 0 1.139-1.871-.005-1.871l.002-.002Z"/><path fill="#999" d="M5.608 5.582c-1.34 0-1.4 1.89 0 1.89h11.201c1.283 0 1.487-1.889 0-1.89H5.608Zm3.007 5.592H5.608c-1.34 0-1.4 1.89 0 1.89h3.007c1.283 0 1.487-1.888 0-1.89Zm10.05-1.825c-5.155 0-9.333 4.176-9.333 9.326.001 5.15 4.18 9.325 9.335 9.325C23.82 28 28 23.824 28 18.674c.002-5.22-4.293-9.325-9.336-9.325Zm0 16.787a7.468 7.468 0 0 1-6.9-4.606 7.457 7.457 0 0 1 1.619-8.132 7.473 7.473 0 0 1 8.138-1.617 7.462 7.462 0 0 1 4.61 6.893 7.49 7.49 0 0 1-7.468 7.469v-.007Z"/><path stroke="#999" stroke-linecap="round" stroke-width="2" d="m15.737 21.283 5.715-5.539M15.732 15.75l5.725 5.528"/></svg>