<?xml version="1.0" encoding="UTF-8"?>
<svg width="84px" height="48px" viewBox="0 0 84 48" version="1.1" xmlns="http://www.w3.org/2000/svg" xmlns:xlink="http://www.w3.org/1999/xlink">
    <title>更多</title>
    <defs>
        <linearGradient x1="66.8215256%" y1="56.3576226%" x2="100%" y2="56.3576226%" id="linearGradient-1">
            <stop stop-color="#FFFFFF" stop-opacity="0.899805029" offset="0%"></stop>
            <stop stop-color="#FFFFFF" stop-opacity="0.898294089" offset="100%"></stop>
        </linearGradient>
    </defs>
    <g id="幸运转盘" stroke="none" stroke-width="1" fill="none" fill-rule="evenodd">
        <g id="切图" transform="translate(-646.000000, -412.000000)">
            <g id="更多" transform="translate(646.000000, 412.000000)">
                <path d="M71.3159224,0.5 C72.9977931,0.5 74.5768086,1.05989259 75.8486656,2.02469759 C77.1205227,2.98950259 78.0852215,4.35921999 78.5384588,5.97886962 L78.5384588,5.97886962 L82.7012307,20.8545906 C83.2117854,22.6790644 83.2191904,24.6076851 82.722661,26.4360256 L82.722661,26.4360256 L78.5052327,41.9656089 C78.0616439,43.5990093 77.0984643,44.9826071 75.8230412,45.9578548 C74.5476181,46.9331024 72.9599515,47.5 71.267389,47.5 L71.267389,47.5 L13.5612299,47.5 C11.949602,47.5 10.4280893,46.9851324 9.1813848,46.0882639 C7.93468033,45.1913953 6.96278412,43.9125258 6.45038919,42.3845218 L6.45038919,42.3845218 L1.61249729,27.9575293 C0.906272216,25.8515079 0.886132139,23.575773 1.55497327,21.4575823 L1.55497327,21.4575823 L6.51742876,5.74170257 C7.01006453,4.18154661 7.98000397,2.87112097 9.23580592,1.95073431 C10.4916079,1.03034766 12.0332723,0.5 13.6693581,0.5 L13.6693581,0.5 Z" id="矩形" stroke="url(#linearGradient-1)" fill="#FF6666"></path>
                <text font-family="PingFangSC-Medium, PingFang SC" font-size="24" font-weight="400" line-spacing="32" fill="#FFFFFF">
                    <tspan x="18" y="33">更多</tspan>
                </text>
            </g>
        </g>
    </g>
</svg>