<svg xmlns="http://www.w3.org/2000/svg" xmlns:xlink="http://www.w3.org/1999/xlink" width="52" height="40"><defs><linearGradient id="a" x1="44.864%" x2="93.848%" y1="81.051%" y2="-.523%"><stop offset="0%" stop-color="#FC7600"/><stop offset="49.394%" stop-color="#FFD13E"/><stop offset="100%" stop-color="#FFE265"/></linearGradient><linearGradient id="c" x1="6.343%" x2="122.528%" y1="62.671%" y2="62.671%"><stop offset="0%" stop-color="#FFE265"/><stop offset="50.606%" stop-color="#FFD13E"/><stop offset="100%" stop-color="#FC7600"/></linearGradient><path id="b" d="m51.232 3.634-4.201 30.732C46.84 35.82 45.604 37 44.267 37H7.952c-1.337 0-2.574-1.18-2.763-2.634l-.714-5.22 4.952-4.264a1 1 0 0 0 .055-.05l.05-.055a1 1 0 0 0-.105-1.41l-6.509-5.608L.988 3.634C.778 2.18 1.537.512 3.61 1c1.38.325 8.88 5.803 22.5 16.434C39.744 6.882 47.244 1.404 48.61 1c2.049-.606 2.83 1.18 2.622 2.634Z"/></defs><g fill="none" fill-rule="evenodd"><path fill="url(#a)" d="M29.134 3.495 41.921 18.27 38.61 26h-25l-3.287-7.758L23.085 3.495a4 4 0 0 1 6.05 0Z"/><g transform="translate(0 2.5)"><mask id="d" fill="#fff"><use xlink:href="#b"/></mask><use xlink:href="#b" fill="url(#c)"/><path fill="#FFED00" d="m47.928 19.977 3.547 4.119c.299.39.812.586 1.538.586.727 0 1.666 1.49 2.815 4.469H38.512c.969-1.723 1.647-2.665 2.034-2.826.388-.16.756-.434 1.106-.82l4.76-5.528a1 1 0 0 1 1.516 0Z" mask="url(#d)" transform="matrix(0 1 1 0 23.046 -23.046)"/></g><text fill="#FFF" font-family="Futura-Bold" font-size="26" font-weight="bold">
                    <tspan x="13.109" y="30.979">01</tspan>
                </text></g></svg>